<svg width="77" height="18" viewBox="0 0 77 18" fill="none" xmlns="http://www.w3.org/2000/svg">
<path d="M24.3503 3.03358C24.0692 1.98349 23.2439 1.15827 22.1938 0.877174C20.2925 0.367188 12.6647 0.367188 12.6647 0.367188C12.6647 0.367188 5.03703 0.367188 3.13562 0.877174C2.08554 1.15827 1.26032 1.98349 0.979225 3.03358C0.469238 4.93498 0.469238 8.90445 0.469238 8.90445C0.469238 8.90445 0.469238 12.8739 0.979225 14.7753C1.26032 15.8254 2.08554 16.6506 3.13562 16.9317C5.03703 17.4417 12.6647 17.4417 12.6647 17.4417C12.6647 17.4417 20.2925 17.4417 22.1938 16.9317C23.2439 16.6506 24.0692 15.8254 24.3503 14.7753C24.8603 12.8739 24.8603 8.90445 24.8603 8.90445C24.8603 8.90445 24.8582 4.93498 24.3503 3.03358Z" fill="#FF0000"/>
<path d="M10.2236 12.5626L16.5603 8.90437L10.2236 5.24609V12.5626Z" fill="white"/>
<path d="M30.0097 11.4677L27.271 1.57715H29.6603L30.6201 6.06061C30.865 7.16491 31.0437 8.10658 31.1601 8.88561H31.2304C31.3107 8.32744 31.4915 7.3918 31.7706 6.07668L32.7644 1.57715H35.1537L32.3809 11.4677V16.2122H30.0077V11.4677H30.0097Z" fill="#212121"/>
<path d="M35.8727 15.8988C35.3909 15.5735 35.0475 15.0675 34.8427 14.3808C34.64 13.6942 34.5376 12.7827 34.5376 11.6422V10.0901C34.5376 8.93962 34.654 8.01405 34.8869 7.31734C35.1198 6.62063 35.4833 6.11064 35.9771 5.79139C36.4711 5.47215 37.1196 5.31152 37.9228 5.31152C38.7139 5.31152 39.3463 5.47416 39.8241 5.79943C40.3 6.12469 40.6493 6.63468 40.8702 7.32537C41.0911 8.01806 41.2015 8.93962 41.2015 10.0901V11.6422C41.2015 12.7827 41.0931 13.6982 40.8783 14.3889C40.6634 15.0816 40.3141 15.5876 39.8321 15.9068C39.3503 16.2261 38.6958 16.3867 37.8705 16.3867C37.0192 16.3886 36.3547 16.224 35.8727 15.8988ZM38.5753 14.2243C38.7078 13.8749 38.7761 13.3067 38.7761 12.5156V9.18464C38.7761 8.41763 38.7098 7.85543 38.5753 7.50206C38.4407 7.14668 38.2059 6.96999 37.8685 6.96999C37.5433 6.96999 37.3124 7.14668 37.1799 7.50206C37.0453 7.85744 36.9791 8.41763 36.9791 9.18464V12.5156C36.9791 13.3067 37.0433 13.8769 37.1719 14.2243C37.3003 14.5736 37.5312 14.7483 37.8685 14.7483C38.2059 14.7483 38.4407 14.5736 38.5753 14.2243Z" fill="#212121"/>
<path d="M48.9731 16.2152H47.0898L46.881 14.9061H46.8288C46.3167 15.894 45.5498 16.3878 44.5258 16.3878C43.817 16.3878 43.293 16.1549 42.9557 15.6912C42.6184 15.2253 42.4497 14.4985 42.4497 13.5107V5.52154H44.8571V13.3701C44.8571 13.848 44.9093 14.1873 45.0137 14.3901C45.1181 14.5929 45.2928 14.6952 45.5377 14.6952C45.7465 14.6952 45.9473 14.631 46.1401 14.5026C46.3329 14.374 46.4734 14.2113 46.5677 14.0146V5.51953H48.9731V16.2152Z" fill="#212121"/>
<path d="M55.5127 3.51464H53.1234V16.2141H50.7682V3.51464H48.3789V1.5791H55.5127V3.51464Z" fill="#212121"/>
<path d="M61.3198 16.2152H59.4365L59.2277 14.9061H59.1755C58.6635 15.894 57.8965 16.3878 56.8725 16.3878C56.1637 16.3878 55.6397 16.1549 55.3024 15.6912C54.9651 15.2253 54.7964 14.4985 54.7964 13.5107V5.52154H57.2038V13.3701C57.2038 13.848 57.256 14.1873 57.3604 14.3901C57.4648 14.5929 57.6395 14.6952 57.8845 14.6952C58.0932 14.6952 58.294 14.631 58.4868 14.5026C58.6796 14.374 58.8201 14.2113 58.9144 14.0146V5.51953H61.3198V16.2152Z" fill="#212121"/>
<path d="M69.2869 7.22923C69.1403 6.55461 68.9053 6.0667 68.5801 5.76352C68.2549 5.46034 67.8071 5.30976 67.2369 5.30976C66.7952 5.30976 66.3815 5.43424 65.9981 5.68522C65.6146 5.93619 65.3174 6.26347 65.1086 6.67106H65.0905V1.03711H62.7715V16.2122H64.7592L65.0041 15.2003H65.0564C65.2431 15.5617 65.5222 15.8448 65.8936 16.0556C66.2651 16.2645 66.6787 16.3689 67.1325 16.3689C67.9457 16.3689 68.546 15.9934 68.9295 15.2444C69.313 14.4935 69.5057 13.323 69.5057 11.7288V10.0362C69.5057 8.84151 69.4314 7.90386 69.2869 7.22923ZM67.0802 11.5922C67.0802 12.3712 67.0481 12.9816 66.9839 13.4234C66.9197 13.8651 66.8132 14.1804 66.6606 14.365C66.51 14.5517 66.3052 14.6441 66.0502 14.6441C65.8515 14.6441 65.6688 14.5979 65.5001 14.5036C65.3315 14.4112 65.195 14.2707 65.0905 14.0859V8.0163C65.1708 7.72516 65.3114 7.48824 65.5102 7.30152C65.7069 7.11479 65.9238 7.02242 66.1546 7.02242C66.3996 7.02242 66.5883 7.1188 66.7209 7.30955C66.8554 7.50229 66.9477 7.82355 67 8.27731C67.0521 8.73108 67.0783 9.37558 67.0783 10.2128V11.5922H67.0802Z" fill="#212121"/>
<path d="M72.9205 12.2083C72.9205 12.8949 72.9406 13.409 72.9808 13.7523C73.0209 14.0956 73.1053 14.3446 73.2337 14.5033C73.3622 14.6598 73.559 14.7381 73.8261 14.7381C74.1855 14.7381 74.4344 14.5976 74.5669 14.3185C74.7015 14.0394 74.7738 13.5736 74.7858 12.9231L76.8619 13.0455C76.8739 13.1379 76.8799 13.2664 76.8799 13.429C76.8799 14.4169 76.6089 15.1558 76.0688 15.6437C75.5287 16.1316 74.7637 16.3765 73.7759 16.3765C72.5893 16.3765 71.758 16.0051 71.2821 15.2602C70.8043 14.5153 70.5674 13.3648 70.5674 11.8067V9.93941C70.5674 8.33519 70.8144 7.16263 71.3083 6.42375C71.8022 5.68487 72.6475 5.31543 73.8461 5.31543C74.6713 5.31543 75.3058 5.46602 75.7475 5.7692C76.1893 6.07238 76.5004 6.54221 76.6812 7.18271C76.8619 7.8232 76.9522 8.70664 76.9522 9.835V11.6662H72.9205V12.2083ZM73.2257 7.16866C73.1032 7.31924 73.023 7.5662 72.9808 7.90954C72.9406 8.25288 72.9205 8.7729 72.9205 9.47166V10.2386H74.6814V9.47166C74.6814 8.78495 74.6573 8.26492 74.6111 7.90954C74.565 7.55415 74.4806 7.30518 74.3581 7.15862C74.2357 7.01405 74.0469 6.93976 73.7919 6.93976C73.5349 6.94177 73.3462 7.01807 73.2257 7.16866Z" fill="#212121"/>
</svg>
