<svg width="550" height="35" viewBox="0 0 550 35" fill="none" xmlns="http://www.w3.org/2000/svg">
<g filter="url(#filter0_i_5_4479)">
<mask id="path-1-inside-1_5_4479" fill="white">
<path d="M0.170898 17.7942C0.170898 8.42518 7.76599 0.830078 17.135 0.830078H491.917V34.7583H17.135C7.76597 34.7583 0.170898 27.1632 0.170898 17.7942V17.7942Z"/>
</mask>
<path d="M0.170898 17.7942C0.170898 8.42518 7.76599 0.830078 17.135 0.830078H491.917V34.7583H17.135C7.76597 34.7583 0.170898 27.1632 0.170898 17.7942V17.7942Z" fill="white"/>
<path d="M-0.682827 17.7942C-0.682827 7.95367 7.29449 -0.0236477 17.135 -0.0236477H491.917V1.6838H17.135C8.23749 1.6838 1.02462 8.89667 1.02462 17.7942L-0.682827 17.7942ZM491.917 35.612H17.135C7.29449 35.612 -0.682827 27.6347 -0.682827 17.7942L1.02462 17.7942C1.02462 26.6917 8.23749 33.9046 17.135 33.9046H491.917V35.612ZM17.135 35.612C7.29449 35.612 -0.682827 27.6347 -0.682827 17.7942V17.7942C-0.682827 7.95367 7.29449 -0.0236477 17.135 -0.0236477L17.135 1.6838C8.23749 1.6838 1.02462 8.89667 1.02462 17.7942V17.7942C1.02462 26.6917 8.23749 33.9046 17.135 33.9046L17.135 35.612ZM491.917 0.830078V34.7583V0.830078Z" fill="#CCCCCC" mask="url(#path-1-inside-1_5_4479)"/>
<path d="M20.987 19.9127C20.987 19.686 20.9514 19.4859 20.8803 19.3124C20.8136 19.1346 20.6935 18.9745 20.5201 18.8322C20.3511 18.6899 20.1155 18.5543 19.8131 18.4254C19.5152 18.2964 19.1372 18.1653 18.6793 18.0319C18.199 17.8896 17.7655 17.7317 17.3787 17.5583C16.9918 17.3805 16.6605 17.1781 16.3849 16.9514C16.1092 16.7246 15.898 16.4645 15.7512 16.171C15.6045 15.8775 15.5311 15.5418 15.5311 15.1639C15.5311 14.7859 15.609 14.4369 15.7646 14.1167C15.9202 13.7966 16.1425 13.5187 16.4316 13.283C16.725 13.0429 17.0741 12.8561 17.4787 12.7228C17.8833 12.5894 18.3346 12.5227 18.8327 12.5227C19.5619 12.5227 20.1799 12.6627 20.6868 12.9429C21.1982 13.2185 21.5873 13.5809 21.854 14.03C22.1208 14.4747 22.2542 14.9504 22.2542 15.4573H20.9736C20.9736 15.0927 20.8958 14.7704 20.7402 14.4902C20.5846 14.2057 20.3489 13.9833 20.0332 13.8233C19.7175 13.6587 19.3173 13.5765 18.8327 13.5765C18.3747 13.5765 17.9967 13.6454 17.6988 13.7832C17.4009 13.9211 17.1786 14.1078 17.0318 14.3435C16.8895 14.5792 16.8184 14.8482 16.8184 15.1505C16.8184 15.3551 16.8606 15.5418 16.9451 15.7108C17.0341 15.8753 17.1697 16.0287 17.352 16.171C17.5387 16.3133 17.7744 16.4445 18.059 16.5645C18.348 16.6846 18.6926 16.8002 19.0928 16.9113C19.6441 17.067 20.1199 17.2404 20.5201 17.4316C20.9203 17.6228 21.2493 17.8384 21.5072 18.0785C21.7696 18.3142 21.963 18.5832 22.0875 18.8856C22.2164 19.1835 22.2809 19.5214 22.2809 19.8994C22.2809 20.2951 22.2009 20.6531 22.0408 20.9732C21.8807 21.2934 21.6517 21.5668 21.3538 21.7936C21.0559 22.0204 20.698 22.196 20.28 22.3205C19.8665 22.4406 19.404 22.5006 18.8927 22.5006C18.4436 22.5006 18.0012 22.4383 17.5654 22.3138C17.1341 22.1893 16.7406 22.0026 16.3849 21.7536C16.0336 21.5046 15.7512 21.1978 15.5378 20.8331C15.3288 20.4641 15.2243 20.0372 15.2243 19.5526H16.5049C16.5049 19.886 16.5694 20.1728 16.6983 20.413C16.8273 20.6486 17.0029 20.8443 17.2253 20.9999C17.452 21.1555 17.7077 21.2711 17.9923 21.3467C18.2813 21.4179 18.5814 21.4534 18.8927 21.4534C19.3418 21.4534 19.722 21.3912 20.0332 21.2667C20.3445 21.1422 20.5801 20.9643 20.7402 20.7331C20.9047 20.5019 20.987 20.2284 20.987 19.9127ZM26.7296 22.5006C26.2272 22.5006 25.7714 22.4161 25.3623 22.2471C24.9577 22.0737 24.6086 21.8314 24.3152 21.5201C24.0262 21.2089 23.8038 20.8398 23.6482 20.413C23.4926 19.9861 23.4148 19.5192 23.4148 19.0123V18.7322C23.4148 18.1452 23.5015 17.6228 23.6749 17.1648C23.8483 16.7024 24.084 16.3111 24.3819 15.9909C24.6798 15.6708 25.0177 15.4284 25.3957 15.2639C25.7736 15.0994 26.1649 15.0171 26.5695 15.0171C27.0853 15.0171 27.53 15.1061 27.9035 15.2839C28.2814 15.4618 28.5905 15.7108 28.8306 16.0309C29.0707 16.3466 29.2486 16.7201 29.3642 17.1515C29.4798 17.5783 29.5376 18.0452 29.5376 18.5521V19.1057H24.1484V18.0986H28.3037V18.0052C28.2859 17.685 28.2192 17.3738 28.1036 17.0714C27.9924 16.7691 27.8146 16.5201 27.57 16.3244C27.3254 16.1288 26.992 16.0309 26.5695 16.0309C26.2894 16.0309 26.0315 16.091 25.7959 16.211C25.5602 16.3266 25.3579 16.5 25.1889 16.7313C25.0199 16.9625 24.8888 17.2448 24.7954 17.5783C24.702 17.9118 24.6553 18.2964 24.6553 18.7322V19.0123C24.6553 19.3547 24.702 19.6771 24.7954 19.9794C24.8932 20.2773 25.0333 20.5397 25.2156 20.7665C25.4023 20.9932 25.6269 21.1711 25.8892 21.3C26.156 21.429 26.4584 21.4935 26.7963 21.4935C27.2321 21.4935 27.6011 21.4045 27.9035 21.2267C28.2059 21.0488 28.4704 20.8109 28.6972 20.513L29.4442 21.1066C29.2886 21.3423 29.0907 21.5668 28.8506 21.7803C28.6105 21.9937 28.3148 22.1671 27.9635 22.3005C27.6167 22.4339 27.2054 22.5006 26.7296 22.5006ZM35.2335 21.1333V17.4182C35.2335 17.1337 35.1757 16.8869 35.0601 16.6779C34.949 16.4645 34.78 16.3 34.5532 16.1843C34.3264 16.0687 34.0463 16.0109 33.7128 16.0109C33.4016 16.0109 33.1281 16.0643 32.8925 16.171C32.6612 16.2777 32.4789 16.4178 32.3455 16.5912C32.2166 16.7646 32.1521 16.9514 32.1521 17.1515H30.9182C30.9182 16.8936 30.9849 16.6379 31.1183 16.3844C31.2517 16.131 31.4429 15.902 31.6919 15.6975C31.9454 15.4885 32.2477 15.3239 32.599 15.2039C32.9547 15.0794 33.3504 15.0171 33.7862 15.0171C34.3109 15.0171 34.7733 15.1061 35.1735 15.2839C35.5781 15.4618 35.8938 15.7308 36.1206 16.091C36.3518 16.4467 36.4674 16.8936 36.4674 17.4316V20.7931C36.4674 21.0332 36.4874 21.2889 36.5275 21.5601C36.5719 21.8314 36.6364 22.0648 36.7209 22.2605V22.3672H35.4336C35.3714 22.2249 35.3225 22.0359 35.2869 21.8003C35.2513 21.5601 35.2335 21.3378 35.2335 21.1333ZM35.447 17.9918L35.4603 18.8589H34.2131C33.8618 18.8589 33.5483 18.8878 33.2726 18.9456C32.9969 18.999 32.7657 19.0812 32.579 19.1924C32.3922 19.3036 32.2499 19.4436 32.1521 19.6126C32.0543 19.7771 32.0054 19.9705 32.0054 20.1929C32.0054 20.4196 32.0565 20.6264 32.1588 20.8131C32.2611 20.9999 32.4145 21.1488 32.619 21.26C32.828 21.3667 33.0837 21.4201 33.386 21.4201C33.764 21.4201 34.0975 21.34 34.3865 21.18C34.6755 21.0199 34.9045 20.8243 35.0735 20.593C35.2469 20.3618 35.3402 20.1373 35.3536 19.9194L35.8805 20.513C35.8494 20.6998 35.7649 20.9065 35.627 21.1333C35.4892 21.3601 35.3047 21.5779 35.0735 21.7869C34.8467 21.9915 34.5754 22.1626 34.2597 22.3005C33.9485 22.4339 33.5972 22.5006 33.2059 22.5006C32.7168 22.5006 32.2877 22.405 31.9187 22.2138C31.5541 22.0226 31.2695 21.7669 31.0649 21.4468C30.8649 21.1222 30.7648 20.7598 30.7648 20.3596C30.7648 19.9728 30.8404 19.6326 30.9916 19.3391C31.1428 19.0412 31.3606 18.7944 31.6452 18.5988C31.9298 18.3987 32.2722 18.2475 32.6724 18.1452C33.0725 18.043 33.5194 17.9918 34.013 17.9918H35.447ZM39.6422 16.2844V22.3672H38.4083V15.1505H39.6089L39.6422 16.2844ZM41.8966 15.1105L41.8899 16.2577C41.7877 16.2355 41.6898 16.2221 41.5965 16.2177C41.5075 16.2088 41.4053 16.2044 41.2896 16.2044C41.0051 16.2044 40.7538 16.2488 40.536 16.3377C40.3181 16.4267 40.1336 16.5512 39.9824 16.7113C39.8312 16.8713 39.7111 17.0625 39.6222 17.2849C39.5377 17.5027 39.4822 17.7428 39.4555 18.0052L39.1086 18.2053C39.1086 17.7695 39.1509 17.3604 39.2354 16.978C39.3243 16.5956 39.4599 16.2577 39.6422 15.9642C39.8245 15.6663 40.0557 15.4351 40.3359 15.2706C40.6205 15.1016 40.9584 15.0171 41.3497 15.0171C41.4386 15.0171 41.5409 15.0283 41.6565 15.0505C41.7721 15.0683 41.8521 15.0883 41.8966 15.1105ZM45.7917 21.4868C46.0852 21.4868 46.3564 21.4268 46.6054 21.3067C46.8544 21.1866 47.059 21.0221 47.219 20.8131C47.3791 20.5997 47.4703 20.3574 47.4925 20.0861H48.6664C48.6441 20.513 48.4996 20.911 48.2328 21.28C47.9705 21.6446 47.6259 21.9403 47.199 22.1671C46.7722 22.3894 46.3031 22.5006 45.7917 22.5006C45.2492 22.5006 44.7757 22.405 44.3711 22.2138C43.9709 22.0226 43.6374 21.7602 43.3706 21.4268C43.1083 21.0933 42.9104 20.7109 42.777 20.2796C42.6481 19.8438 42.5836 19.3836 42.5836 18.8989V18.6188C42.5836 18.1341 42.6481 17.6761 42.777 17.2448C42.9104 16.8091 43.1083 16.4245 43.3706 16.091C43.6374 15.7575 43.9709 15.4951 44.3711 15.3039C44.7757 15.1127 45.2492 15.0171 45.7917 15.0171C46.3564 15.0171 46.85 15.1328 47.2724 15.364C47.6948 15.5907 48.0261 15.902 48.2662 16.2977C48.5107 16.689 48.6441 17.1337 48.6664 17.6317H47.4925C47.4703 17.3338 47.3858 17.0647 47.2391 16.8246C47.0968 16.5845 46.9011 16.3933 46.6521 16.251C46.4076 16.1043 46.1208 16.0309 45.7917 16.0309C45.4138 16.0309 45.0958 16.1065 44.8379 16.2577C44.5845 16.4044 44.3822 16.6045 44.231 16.858C44.0843 17.107 43.9776 17.3849 43.9109 17.6917C43.8486 17.9941 43.8175 18.3031 43.8175 18.6188V18.8989C43.8175 19.2146 43.8486 19.5259 43.9109 19.8327C43.9731 20.1395 44.0776 20.4174 44.2243 20.6664C44.3755 20.9154 44.5778 21.1155 44.8313 21.2667C45.0892 21.4134 45.4093 21.4868 45.7917 21.4868ZM51.2876 12.1225V22.3672H50.0537V12.1225H51.2876ZM50.9941 18.4854L50.4805 18.4654C50.485 17.9718 50.5584 17.5161 50.7006 17.0981C50.8429 16.6757 51.043 16.3088 51.3009 15.9976C51.5588 15.6863 51.8656 15.4462 52.2213 15.2773C52.5815 15.1038 52.9795 15.0171 53.4152 15.0171C53.7709 15.0171 54.0911 15.0661 54.3757 15.1639C54.6602 15.2573 54.9026 15.4084 55.1027 15.6174C55.3072 15.8264 55.4628 16.0976 55.5695 16.4311C55.6763 16.7602 55.7296 17.1626 55.7296 17.6383V22.3672H54.489V17.625C54.489 17.2471 54.4335 16.9447 54.3223 16.7179C54.2111 16.4867 54.0488 16.32 53.8354 16.2177C53.622 16.111 53.3596 16.0576 53.0484 16.0576C52.7416 16.0576 52.4614 16.1221 52.208 16.251C51.959 16.38 51.7433 16.5578 51.561 16.7846C51.3832 17.0114 51.2431 17.2715 51.1408 17.565C51.043 17.854 50.9941 18.1608 50.9941 18.4854Z" fill="#888888"/>
</g>
<path d="M492.344 1.25694H529.481C538.675 1.25694 546.129 8.71035 546.129 17.9046C546.129 27.0988 538.675 34.5522 529.481 34.5522H492.344V1.25694Z" fill="#F8F8F8"/>
<path d="M492.344 1.25694H529.481C538.675 1.25694 546.129 8.71035 546.129 17.9046C546.129 27.0988 538.675 34.5522 529.481 34.5522H492.344V1.25694Z" stroke="#D3D3D3" stroke-width="0.853726"/>
<g clip-path="url(#clip0_5_4479)">
<path d="M526.809 24.8782L522.036 20.1059C522.95 19.0558 523.505 17.6898 523.505 16.1958C523.505 12.8919 520.833 10.2197 517.529 10.2197C514.225 10.2197 511.553 12.8919 511.553 16.1958C511.553 19.4997 514.225 22.1719 517.529 22.1719C519.023 22.1719 520.389 21.617 521.439 20.712L526.211 25.4843L526.809 24.8782ZM517.529 21.3182C514.703 21.3182 512.406 19.0216 512.406 16.1958C512.406 13.37 514.703 11.0735 517.529 11.0735C520.355 11.0735 522.651 13.37 522.651 16.1958C522.651 19.0216 520.355 21.3182 517.529 21.3182Z" fill="#0F0F0F"/>
</g>
<defs>
<filter id="filter0_i_5_4479" x="0.170898" y="0.830078" width="491.746" height="34.7824" filterUnits="userSpaceOnUse" color-interpolation-filters="sRGB">
<feFlood flood-opacity="0" result="BackgroundImageFix"/>
<feBlend mode="normal" in="SourceGraphic" in2="BackgroundImageFix" result="shape"/>
<feColorMatrix in="SourceAlpha" type="matrix" values="0 0 0 0 0 0 0 0 0 0 0 0 0 0 0 0 0 0 127 0" result="hardAlpha"/>
<feOffset dy="0.853726"/>
<feGaussianBlur stdDeviation="0.853726"/>
<feComposite in2="hardAlpha" operator="arithmetic" k2="-1" k3="1"/>
<feColorMatrix type="matrix" values="0 0 0 0 0.933333 0 0 0 0 0.933333 0 0 0 0 0.933333 0 0 0 1 0"/>
<feBlend mode="normal" in2="shape" result="effect1_innerShadow_5_4479"/>
</filter>
<clipPath id="clip0_5_4479">
<rect width="20.4894" height="20.4894" fill="white" transform="translate(508.992 7.65918)"/>
</clipPath>
</defs>
</svg>
