<svg width="88" height="32" viewBox="0 0 88 32" fill="none" xmlns="http://www.w3.org/2000/svg">
<rect x="0.959089" y="0.83116" width="86.3197" height="30.1463" rx="14.9402" stroke="black" stroke-opacity="0.1" stroke-width="0.853726"/>
<g clip-path="url(#clip0_5_4498)">
<path d="M19.3141 7.36523C14.6015 7.36523 10.7769 11.1899 10.7769 15.9025C10.7769 20.6151 14.6015 24.4398 19.3141 24.4398C24.0267 24.4398 27.8514 20.6151 27.8514 15.9025C27.8514 11.1899 24.0267 7.36523 19.3141 7.36523ZM19.3141 8.21896C23.5486 8.21896 26.9976 11.668 26.9976 15.9025C26.9976 17.1148 26.7074 18.2588 26.2037 19.2832C24.8975 17.8148 22.8059 16.816 19.9032 16.6965C21.5082 16.4147 22.729 15.0232 22.729 13.3413C22.729 11.4546 21.2008 9.92641 19.3141 9.92641C17.4274 9.92641 15.8992 11.4546 15.8992 13.3413C15.8992 15.0232 17.12 16.4147 18.725 16.6965C15.8224 16.816 13.7307 17.8148 12.4245 19.2832C11.9208 18.2588 11.6306 17.1148 11.6306 15.9025C11.6306 11.668 15.0796 8.21896 19.3141 8.21896ZM16.7529 13.3413C16.7529 11.9327 17.9055 10.7801 19.3141 10.7801C20.7228 10.7801 21.8753 11.9327 21.8753 13.3413C21.8753 14.75 20.7228 15.9025 19.3141 15.9025C17.9055 15.9025 16.7529 14.75 16.7529 13.3413ZM19.3141 23.586C16.6163 23.586 14.243 22.1859 12.8685 20.0687C14.2003 18.4039 16.42 17.5246 19.3141 17.5246C22.2082 17.5246 24.4279 18.4039 25.7597 20.0687C24.3852 22.1859 22.0119 23.586 19.3141 23.586Z" fill="#065FD4"/>
</g>
<path d="M40.0153 17.2158C40.0153 17.0407 39.988 16.8851 39.9336 16.7489C39.883 16.6127 39.7916 16.4882 39.6593 16.3754C39.527 16.2626 39.3402 16.1536 39.099 16.0486C38.8617 15.9396 38.5582 15.8288 38.1886 15.7159C37.784 15.5914 37.4105 15.4533 37.0681 15.3016C36.7296 15.146 36.4339 14.967 36.181 14.7647C35.9281 14.5585 35.7316 14.3231 35.5916 14.0585C35.4515 13.79 35.3815 13.4807 35.3815 13.1306C35.3815 12.7843 35.4535 12.4692 35.5974 12.1851C35.7453 11.9011 35.9534 11.656 36.2219 11.4498C36.4942 11.2397 36.8152 11.0782 37.1848 10.9654C37.5544 10.8487 37.9629 10.7903 38.4104 10.7903C39.0407 10.7903 39.5834 10.9071 40.0386 11.1405C40.4977 11.3739 40.8498 11.6871 41.0949 12.0801C41.3439 12.4731 41.4684 12.9069 41.4684 13.3815H40.0153C40.0153 13.1014 39.955 12.8543 39.8344 12.6404C39.7176 12.4225 39.5387 12.2513 39.2974 12.1268C39.0601 12.0023 38.7586 11.94 38.3929 11.94C38.0466 11.94 37.7587 11.9926 37.5291 12.0976C37.2996 12.2027 37.1284 12.3447 37.0156 12.5236C36.9027 12.7026 36.8463 12.9049 36.8463 13.1306C36.8463 13.2901 36.8833 13.436 36.9572 13.5683C37.0311 13.6967 37.144 13.8173 37.2957 13.9301C37.4474 14.0391 37.6381 14.1422 37.8676 14.2394C38.0972 14.3367 38.3676 14.4301 38.6788 14.5196C39.1496 14.6596 39.5601 14.8152 39.9102 14.9864C40.2604 15.1537 40.5522 15.3444 40.7856 15.5584C41.0191 15.7723 41.1941 16.0155 41.3109 16.2879C41.4276 16.5563 41.4859 16.8617 41.4859 17.2041C41.4859 17.5621 41.414 17.885 41.27 18.1729C41.1261 18.4569 40.9199 18.7001 40.6514 18.9024C40.3868 19.1008 40.0678 19.2545 39.6943 19.3634C39.3247 19.4685 38.9123 19.521 38.4571 19.521C38.0485 19.521 37.6458 19.4665 37.249 19.3576C36.856 19.2487 36.4981 19.0833 36.1752 18.8615C35.8522 18.6359 35.5955 18.3558 35.4048 18.0212C35.2142 17.6827 35.1189 17.2878 35.1189 16.8364H36.5837C36.5837 17.1127 36.6304 17.3481 36.7238 17.5426C36.821 17.7371 36.9553 17.8967 37.1264 18.0212C37.2976 18.1418 37.4961 18.2313 37.7217 18.2896C37.9513 18.348 38.1964 18.3772 38.4571 18.3772C38.7994 18.3772 39.0854 18.3285 39.3149 18.2313C39.5484 18.134 39.7235 17.9978 39.8402 17.8227C39.9569 17.6477 40.0153 17.4453 40.0153 17.2158ZM44.574 13.0897V19.4043H43.1617V13.0897H44.574ZM43.0683 11.4323C43.0683 11.2183 43.1384 11.0413 43.2784 10.9012C43.4224 10.7573 43.6208 10.6853 43.8737 10.6853C44.1227 10.6853 44.3192 10.7573 44.4631 10.9012C44.6071 11.0413 44.6791 11.2183 44.6791 11.4323C44.6791 11.6424 44.6071 11.8175 44.4631 11.9575C44.3192 12.0976 44.1227 12.1676 43.8737 12.1676C43.6208 12.1676 43.4224 12.0976 43.2784 11.9575C43.1384 11.8175 43.0683 11.6424 43.0683 11.4323ZM50.586 13.0897H51.8641V19.2292C51.8641 19.7973 51.7434 20.2797 51.5022 20.6765C51.261 21.0734 50.9245 21.3749 50.4926 21.5811C50.0607 21.7912 49.5608 21.8963 48.9927 21.8963C48.7515 21.8963 48.4831 21.8613 48.1874 21.7912C47.8956 21.7212 47.6115 21.6084 47.3353 21.4527C47.063 21.301 46.8354 21.1006 46.6525 20.8516L47.312 20.0229C47.5376 20.2914 47.7866 20.4879 48.059 20.6124C48.3313 20.7369 48.6173 20.7991 48.9169 20.7991C49.2398 20.7991 49.5141 20.7388 49.7397 20.6182C49.9693 20.5015 50.1463 20.3283 50.2708 20.0988C50.3953 19.8692 50.4576 19.5891 50.4576 19.2584V14.5196L50.586 13.0897ZM46.2965 16.317V16.1945C46.2965 15.7159 46.3549 15.2802 46.4716 14.8872C46.5883 14.4904 46.7556 14.1499 46.9735 13.8659C47.1913 13.578 47.4559 13.3582 47.7672 13.2064C48.0784 13.0508 48.4305 12.973 48.8235 12.973C49.232 12.973 49.5802 13.0469 49.8681 13.1948C50.1599 13.3426 50.4031 13.5547 50.5976 13.8309C50.7922 14.1032 50.9439 14.4301 51.0528 14.8114C51.1657 15.1887 51.2493 15.6089 51.3038 16.0719V16.4629C51.2532 16.9143 51.1676 17.3267 51.047 17.7002C50.9264 18.0737 50.7669 18.3966 50.5685 18.669C50.37 18.9413 50.1249 19.1514 49.8331 19.2992C49.5452 19.4471 49.2048 19.521 48.8118 19.521C48.4266 19.521 48.0784 19.4413 47.7672 19.2817C47.4598 19.1222 47.1952 18.8985 46.9735 18.6106C46.7556 18.3227 46.5883 17.9842 46.4716 17.5951C46.3549 17.2022 46.2965 16.7761 46.2965 16.317ZM47.703 16.1945V16.317C47.703 16.605 47.7302 16.8734 47.7847 17.1224C47.843 17.3714 47.9306 17.5912 48.0473 17.7819C48.1679 17.9686 48.3196 18.1165 48.5025 18.2254C48.6893 18.3305 48.9091 18.383 49.162 18.383C49.4927 18.383 49.7631 18.313 49.9732 18.1729C50.1872 18.0328 50.3506 17.8441 50.4634 17.6068C50.5801 17.3656 50.6618 17.0971 50.7085 16.8014V15.7451C50.6852 15.5156 50.6365 15.3016 50.5626 15.1032C50.4926 14.9047 50.3973 14.7316 50.2767 14.5837C50.156 14.432 50.0043 14.3153 49.8214 14.2336C49.6386 14.148 49.4227 14.1052 49.1736 14.1052C48.9208 14.1052 48.7009 14.1597 48.5142 14.2686C48.3274 14.3775 48.1737 14.5273 48.0531 14.718C47.9364 14.9086 47.8489 15.1304 47.7905 15.3833C47.7322 15.6362 47.703 15.9066 47.703 16.1945ZM55.1447 14.4378V19.4043H53.7382V13.0897H55.063L55.1447 14.4378ZM54.8938 16.0136L54.4386 16.0077C54.4425 15.5603 54.5047 15.1498 54.6253 14.7763C54.7498 14.4028 54.921 14.0818 55.1389 13.8134C55.3607 13.5449 55.6252 13.3387 55.9326 13.1948C56.24 13.0469 56.5823 12.973 56.9597 12.973C57.2632 12.973 57.5375 13.0158 57.7826 13.1014C58.0316 13.1831 58.2437 13.3173 58.4187 13.5041C58.5977 13.6908 58.7339 13.934 58.8273 14.2336C58.9206 14.5293 58.9673 14.8931 58.9673 15.3249V19.4043H57.555V15.3191C57.555 15.0156 57.5103 14.7763 57.4208 14.6013C57.3352 14.4223 57.2087 14.2958 57.0414 14.2219C56.878 14.1441 56.6738 14.1052 56.4287 14.1052C56.1874 14.1052 55.9715 14.1558 55.7809 14.2569C55.5902 14.3581 55.4287 14.4962 55.2965 14.6713C55.1681 14.8464 55.0689 15.0487 54.9988 15.2782C54.9288 15.5078 54.8938 15.7529 54.8938 16.0136ZM65.7388 13.0897V19.4043H64.3264V13.0897H65.7388ZM64.2331 11.4323C64.2331 11.2183 64.3031 11.0413 64.4432 10.9012C64.5871 10.7573 64.7855 10.6853 65.0384 10.6853C65.2874 10.6853 65.4839 10.7573 65.6279 10.9012C65.7718 11.0413 65.8438 11.2183 65.8438 11.4323C65.8438 11.6424 65.7718 11.8175 65.6279 11.9575C65.4839 12.0976 65.2874 12.1676 65.0384 12.1676C64.7855 12.1676 64.5871 12.0976 64.4432 11.9575C64.3031 11.8175 64.2331 11.6424 64.2331 11.4323ZM69.1011 14.4378V19.4043H67.6947V13.0897H69.0194L69.1011 14.4378ZM68.8502 16.0136L68.395 16.0077C68.3989 15.5603 68.4611 15.1498 68.5817 14.7763C68.7062 14.4028 68.8774 14.0818 69.0953 13.8134C69.3171 13.5449 69.5816 13.3387 69.889 13.1948C70.1964 13.0469 70.5387 12.973 70.9161 12.973C71.2196 12.973 71.4939 13.0158 71.739 13.1014C71.988 13.1831 72.2001 13.3173 72.3751 13.5041C72.5541 13.6908 72.6903 13.934 72.7837 14.2336C72.877 14.5293 72.9237 14.8931 72.9237 15.3249V19.4043H71.5114V15.3191C71.5114 15.0156 71.4667 14.7763 71.3772 14.6013C71.2916 14.4223 71.1651 14.2958 70.9978 14.2219C70.8344 14.1441 70.6302 14.1052 70.3851 14.1052C70.1438 14.1052 69.9279 14.1558 69.7373 14.2569C69.5466 14.3581 69.3852 14.4962 69.2529 14.6713C69.1245 14.8464 69.0253 15.0487 68.9552 15.2782C68.8852 15.5078 68.8502 15.7529 68.8502 16.0136Z" fill="#065FD4"/>
<defs>
<clipPath id="clip0_5_4498">
<rect width="20.4894" height="20.4894" fill="white" transform="translate(9.06934 5.65918)"/>
</clipPath>
</defs>
</svg>
