<svg width="3" height="14" viewBox="0 0 3 14" fill="none" xmlns="http://www.w3.org/2000/svg">
<path d="M1.62727 10.7457C2.33586 10.7457 2.90786 11.3177 2.90786 12.0263C2.90786 12.7349 2.33586 13.3069 1.62727 13.3069C0.918676 13.3069 0.34668 12.7349 0.34668 12.0263C0.34668 11.3177 0.918676 10.7457 1.62727 10.7457ZM0.34668 6.90392C0.34668 7.61251 0.918676 8.18451 1.62727 8.18451C2.33586 8.18451 2.90786 7.61251 2.90786 6.90392C2.90786 6.19533 2.33586 5.62333 1.62727 5.62333C0.918676 5.62333 0.34668 6.19533 0.34668 6.90392ZM0.34668 1.78157C0.34668 2.49016 0.918676 3.06215 1.62727 3.06215C2.33586 3.06215 2.90786 2.49016 2.90786 1.78157C2.90786 1.07297 2.33586 0.500977 1.62727 0.500977C0.918676 0.500977 0.34668 1.07297 0.34668 1.78157Z" fill="#030303"/>
</svg>
