<svg width="12" height="16" viewBox="0 0 12 16" fill="none" xmlns="http://www.w3.org/2000/svg">
<path d="M6.45937 0.220703C5.04219 0.220703 3.8982 1.39031 3.8982 2.84164V7.84448C3.8982 9.29581 5.04219 10.4654 6.45937 10.4654C7.87656 10.4654 9.02055 9.29581 9.02055 7.84448V2.84164C9.02055 1.39031 7.87656 0.220703 6.45937 0.220703ZM12.0086 7.90424H11.1549C11.1549 10.491 9.04616 12.5997 6.45937 12.5997C3.87259 12.5997 1.76388 10.491 1.76388 7.90424H0.910156C0.910156 10.6703 2.95056 12.9668 5.60565 13.3766V15.5878H7.3131V13.3766C9.96819 12.9668 12.0086 10.6703 12.0086 7.90424Z" fill="#0F0F0F"/>
</svg>
